<svg xmlns="http://www.w3.org/2000/svg" width="24" height="23" fill="none" viewBox="0 0 24 23"><path fill="#1C1C24" d="M1.916 7.02S1.561.41 2.997.08C4.433-.25 6.91 2.121 6.91 2.121l-4.994 4.9Zm13.566-4.738s2.651-2.64 4.53-2.2c1.878.44.443 5.658.443 5.658l-4.973-3.458Z"/><path fill="#F07F2E" stroke="#1C1C24" stroke-miterlimit="10" stroke-width="0.4" d="M20.668 19.107c-1.99 1.572-3.32 2.086-5.583 2.698-1.51.409-5.312.388-8.856-1.038-2.482-1.086-3.455-2.267-3.923-2.91-.408-.56-1.238-1.802-1.285-3.16-.07-1.978-.011-3.908.897-7.674.907-3.768 4.994-4.9 4.994-4.9 4.465-1.053 8.172-.225 9.459 0 1.286.227 4.942 2.541 5.256 7.18.048.693.825 3.16.9 5.232.022.635.04 1.481-.276 2.35-.365 1-1.18 1.884-1.583 2.221Z"/><path fill="#1C1C24" d="M8.362 9.747c.031-.059.067-.116.106-.172l.056-.08.033-.043a2.34 2.34 0 0 1 .263-.272c.011-.01.07-.059.024-.022-.047.036.021-.014.036-.025a1.09 1.09 0 0 1 .118-.07l.062-.031c.041-.021-.073.023.007-.001.045-.014.09-.025.134-.035.06-.015-.076.002-.014.002.026 0 .053-.003.081-.002.025 0 .05.004.073.004.044 0-.071-.02-.03-.003.01.003.023.003.033.007l.076.02.033.013c.069.02-.04-.026-.006-.003.057.039.124.068.182.106a.288.288 0 0 1 .035.026c-.056-.043 0 0 .011.011.032.03.064.057.095.088a2.4 2.4 0 0 1 .371.484.36.36 0 0 0 .48.125.353.353 0 0 0 .125-.477c-.375-.601-.944-1.21-1.722-1.074-.467.082-.833.45-1.1.816-.061.083-.12.169-.168.258a.355.355 0 0 0 .127.477c.157.09.39.04.479-.127ZM18.6 9.248a1.855 1.855 0 0 1 .156-.242.849.849 0 0 0 .03-.042c.026-.034-.058.071-.005.01a2.346 2.346 0 0 1 .257-.266c.011-.01.07-.057.022-.02-.048.038.018-.012.033-.021a1.16 1.16 0 0 1 .112-.069l.058-.03c.041-.02-.077.025.004 0 .042-.012.085-.022.128-.033.059-.014-.078.004-.017.002.026 0 .051-.003.078-.002.024 0 .047.005.07.005.045 0-.073-.02-.032-.004.009.004.02.004.03.006l.072.02c.01.003.021.008.032.01.068.02-.042-.026-.01-.004.055.037.119.064.175.102a.765.765 0 0 1 .032.025c-.06-.046-.004-.003.007.008.03.028.062.054.091.083.154.153.235.272.355.461.099.16.313.222.479.126a.353.353 0 0 0 .126-.477c-.364-.582-.914-1.167-1.666-1.036-.453.08-.804.434-1.064.788-.058.08-.113.162-.16.248a.355.355 0 0 0 .126.477c.16.093.393.043.482-.125Z"/><path stroke="#1C1C24" stroke-miterlimit="10" stroke-width="0.4" d="m10.622 12.772-3.626-.117m3.686 1.361-3.148.466m12.64-2.247 3.626-.117m-3.685 1.357 3.148.464m-8.276-.304s1.754 2.418 3.238-.044m-1.605-1.762v2.73"/><path fill="#1C1C24" d="M16.588 11.952c.735 0 1.33-.418 1.33-.934 0-.515-.595-.933-1.33-.933-.734 0-1.33.418-1.33.933 0 .516.596.934 1.33.934Z"/><path fill="#1C1C24" stroke="#1C1C24" stroke-miterlimit="10" stroke-width="0.4" d="M4.94 10.631c1.18-1.216-2.59-3.768-2.867-3.877C2.06 6.749 1 11.524 1.055 14.4c.013.671.14 1.37.14 1.37.221.196.366.826 2.018.022.924-.45 1.107-1.368.265-1.544-1.618-.339.005-.7-.26-1.34-.67-1.615.482-.998 1.722-2.277Zm16.011 4.743c.137-1.43 1.48-1.026 1.48-1.026.446 2.61-1.116 4.383-2.242 5.004-.274 0-.536-1.596.079-1.8.614-.203.547-.748.683-2.178Z"/></svg>